<svg version="1.2" xmlns="http://www.w3.org/2000/svg" viewBox="0 0 992 992" width="64" height="64"><title>The DataFace</title><style>rect{fill: #ffffff;}#top path{fill: #234c5e;}#bottom path{fill: #00ccb3;}@media (prefers-color-scheme: dark){rect{fill: #234c5e;}#top path{fill: #ffffff;}}</style><rect x="0" y="0" width="992" height="992"/><g id="top"><path fill-rule="evenodd" class="s1" d="m280.2 188.2v287.8h-60.2v-28.9c-6.1 8.7-21.3 29.7-63.9 29.7-64 0-105.9-49.5-105.9-113.1 0-71.6 51.1-112.3 104.7-112.3 37.3 0 55.2 18.3 62.1 25.1v-88.3zm-58.7 172.7c0-35.4-26.9-64.1-59.6-64.1-32.6 0-57.9 26.4-59.5 62-1.7 35.4 26.9 66.2 59.5 66.2 32.3 0 59.6-28.7 59.6-64.1z"/><path d=""/><path d="m83.5 195.3h-6.5v-5.3h6.5v-13h6.8v13h7v5.3h-7v30.6h-6.8z"/><path d="m102.4 177h6.9v12.4 5.6c2.1-4.3 7-6.2 11.7-6.1 5.6 0 9.2 1.8 11.5 5 2.2 3.1 3.1 7.4 3.1 12.4v19.6h-6.9v-19.3c0-3.2-0.6-6.1-2.1-8.1-1.6-1.9-4-3.1-7.5-3.1-3.7 0-6.2 1.4-7.6 3.3-1.5 1.9-2.2 4.5-2.2 6.9v20.3h-6.9z"/><path d="m148.9 210.1c0.3 7.3 6.6 11 12.1 11 4.8 0 8.4-2.3 10.3-6.1h7.2c-1.7 4-4.3 6.9-7.3 8.9-3 2.1-6.6 3.1-10.2 3.1-11.8 0-19.1-9.5-19.1-19 0-10.3 8.1-19.1 19-19.1 5.2 0 9.8 1.9 13.3 5.3 4.2 4.3 6 9.9 5.4 15.9zm23.9-5.3c-0.3-4.8-5.1-10.2-11.9-10-7 0-11.5 5.1-11.9 10z"/><path d="m928 256.7l-85.2 52.5c-8.6-5.5-18.6-8.7-29.3-8.7-31.9 0-57.8 27.9-58.1 62.5l-44.6 27.4c-2.8-10.5-4.3-21.6-4.3-33.1 0-66.1 47.7-107.6 101.5-107.6 33.1 0 51.6 16 59.6 28.4v-21.5h60.4z"/><path d="m657.2 256h29.2v46l-29.2-0.4v120.9l-60.7 35.9v-156.4h-29.9v-46h29.9v-67.5h60.7z"/><path d="m169.9 519.2v45.9c-11.4 0-25.7 0-25.7 19.4v7.7h25.7v46.2h-25.7v100.9l-60.9 37.2v-138.1h-22.7v-46.2h22.7v-8.8c0-59 43.7-64.2 86.6-64.2z"/><path fill-rule="evenodd" d="m540.5 251.9l-0.2 225h-65.1l0.2-30.7c-11.8 21.1-38.9 31-64.4 31-69.1 0-109.5-54.2-109.5-116.6 0-71.4 51.4-116.2 109.5-116.2 35.7 0 55.7 17.3 64.4 30.7v-23.2zm-65.2 111.8c0.4-5 0-10-1-14.8-5.2-29.7-29.6-52.1-58.5-52.1-32.6 0-57.9 26.4-59.5 62-1.7 35.4 26.9 66.2 59.5 66.2 31.4 0 58.1-27.2 59.5-61.3z"/><path d="m244.1 633.5c0 14.1 4.2 27.2 11.5 37.7l-43 26.2c-12.2-18.8-18.7-41.9-18.7-66.4 0-68.5 49.3-111.4 105-111.4 34.2 0 53.4 16.6 61.7 29.4v-22.2h62.5v42l-65.3 40c-9-22.9-30.1-39-54.6-39-32.6 0-59.1 28.5-59.1 63.7z"/></g><g id="bottom"><path d="m683.8 664.3c-12 50.4-56.4 91.6-116.5 91.6-67.2 0-118.9-52.8-118.9-118.9 0-65.2 50.9-118.1 117.3-118.1 58.9 0 106.5 38.9 117.7 93.3h-66.5c-8.8-20.1-27.7-34-49.4-34-30 0-53.2 24.5-54.7 57.4-1.5 32.8 24.7 61.3 54.7 61.3 20.9 0 39.6-13.3 48.7-32.6z"/><path d="m83.3 794.6l61.2-37.5v57.9h-61.2z"/><path fill-rule="evenodd" d="m936.4 657.6h-166.3c0.8 24.2 23.2 42.6 49.3 42.6 21.2 0 32.9-7.6 40.9-19.2h69.4c-10.8 24.8-26 42.1-44.8 54.9-18.4 13.2-40.4 20-63.3 20-63.6 0-117.7-51.6-117.7-117.7 0-62 48.9-119.3 116.5-119.3 34.1 0 63.3 13.2 84.1 35.3 28 30 37.1 62.6 31.9 103.4zm-64.4-40.9c-0.8-25.1-24.6-42.7-51.8-42.7-20.5 0-36.2 9.5-44.8 25.3-1.3 2.3-2.3 4.5-3 6.4q-2 5.2-3.2 11z"/><path d="m597 476.2l61.3-37.8v38h-61.3z"/><path d="m928.7 272.5l0.2 204.4h-59.4v-27.9c-10.7 19.2-35.3 28.2-58.5 28.2-50.4 0-84-31.7-95.3-73.5l42.4-26.2c5.3 28.3 28.3 49.5 55.8 49.5 16.9 0 32.1-8 42.5-20.6q2.8-3.2 4.9-6.7c2-3.1 3.6-6.4 4.8-9.7 3.1-7.6 4.8-16 4.8-24.8 0-18.1-7.2-34.4-18.6-45.7z"/><path d="m423.6 586.1l0.1 169.2h-61.4v-29c-11 20-36.5 29.2-60.5 29.2-38 0-66.7-17.4-84.1-43.5l44.3-27.1c10.7 11.2 25.2 18 41.2 18 11.6 0 21.4-3.2 31.3-9 8.2-4.9 15-11.4 19.4-18.5 5.1-8.1 7.7-17 8.4-26.2q0.4-3.9 0-7.8 0.1-1.1 0.1-2.1c0-5.1-0.6-10-1.6-14.8z"/></g></svg>